{
    "asset" : {
        "generator" : "Khronos glTF Blender I/O v0.9.36",
        "version" : "2.0"
    },
    "scene" : 0,
    "scenes" : [
        {
            "name" : "Scene",
            "nodes" : [
                0,
                1
            ]
        }
    ],
    "nodes" : [
        {
            "mesh" : 0,
            "name" : "Tree"
        },
        {
            "mesh" : 1,
            "name" : "Player"
        }
    ],
    "materials" : [
        {
            "doubleSided" : true,
            "name" : "Material.007",
            "pbrMetallicRoughness" : {
                "metallicFactor" : 0,
                "roughnessFactor" : 0.5
            }
        },
        {
            "doubleSided" : true,
            "name" : "Material.001",
            "pbrMetallicRoughness" : {
                "baseColorFactor" : [
                    0.14907458424568176,
                    0.5078738331794739,
                    0.8000000715255737,
                    1
                ],
                "metallicFactor" : 0,
                "roughnessFactor" : 0.5
            }
        },
        {
            "doubleSided" : true,
            "name" : "Material.002",
            "pbrMetallicRoughness" : {
                "baseColorFactor" : [
                    0.8000000715255737,
                    0,
                    0.012314810417592525,
                    1
                ],
                "metallicFactor" : 0,
                "roughnessFactor" : 0.5
            }
        }
    ],
    "meshes" : [
        {
            "name" : "Cylinder.002",
            "primitives" : [
                {
                    "attributes" : {
                        "POSITION" : 0,
                        "NORMAL" : 1,
                        "TEXCOORD_0" : 2,
                        "COLOR_0" : 3
                    },
                    "indices" : 4,
                    "material" : 0
                }
            ]
        },
        {
            "name" : "Cylinder",
            "primitives" : [
                {
                    "attributes" : {
                        "POSITION" : 5,
                        "NORMAL" : 6,
                        "TEXCOORD_0" : 7
                    },
                    "indices" : 8,
                    "material" : 1
                },
                {
                    "attributes" : {
                        "POSITION" : 9,
                        "NORMAL" : 10,
                        "TEXCOORD_0" : 11
                    },
                    "indices" : 12,
                    "material" : 2
                }
            ]
        }
    ],
    "accessors" : [
        {
            "bufferView" : 0,
            "componentType" : 5126,
            "count" : 516,
            "max" : [
                0.26086774468421936,
                0.5789716243743896,
                0.2579193115234375
            ],
            "min" : [
                -0.26012393832206726,
                -0.10342349112033844,
                -0.26195839047431946
            ],
            "type" : "VEC3"
        },
        {
            "bufferView" : 1,
            "componentType" : 5126,
            "count" : 516,
            "type" : "VEC3"
        },
        {
            "bufferView" : 2,
            "componentType" : 5126,
            "count" : 516,
            "type" : "VEC2"
        },
        {
            "bufferView" : 3,
            "componentType" : 5126,
            "count" : 516,
            "type" : "VEC4"
        },
        {
            "bufferView" : 4,
            "componentType" : 5123,
            "count" : 516,
            "type" : "SCALAR"
        },
        {
            "bufferView" : 5,
            "componentType" : 5126,
            "count" : 192,
            "max" : [
                0.21715687215328217,
                0.22932931780815125,
                0.21715658903121948
            ],
            "min" : [
                -0.217156782746315,
                -0.22932931780815125,
                -0.21715706586837769
            ],
            "type" : "VEC3"
        },
        {
            "bufferView" : 6,
            "componentType" : 5126,
            "count" : 192,
            "type" : "VEC3"
        },
        {
            "bufferView" : 7,
            "componentType" : 5126,
            "count" : 192,
            "type" : "VEC2"
        },
        {
            "bufferView" : 8,
            "componentType" : 5123,
            "count" : 372,
            "type" : "SCALAR"
        },
        {
            "bufferView" : 9,
            "componentType" : 5126,
            "count" : 54,
            "max" : [
                0.7000000476837158,
                0.8237614631652832,
                1
            ],
            "min" : [
                -1.2999999523162842,
                0.5502844452857971,
                -1
            ],
            "type" : "VEC3"
        },
        {
            "bufferView" : 10,
            "componentType" : 5126,
            "count" : 54,
            "type" : "VEC3"
        },
        {
            "bufferView" : 11,
            "componentType" : 5126,
            "count" : 54,
            "type" : "VEC2"
        },
        {
            "bufferView" : 12,
            "componentType" : 5123,
            "count" : 72,
            "type" : "SCALAR"
        }
    ],
    "bufferViews" : [
        {
            "buffer" : 0,
            "byteLength" : 6192,
            "byteOffset" : 0
        },
        {
            "buffer" : 0,
            "byteLength" : 6192,
            "byteOffset" : 6192
        },
        {
            "buffer" : 0,
            "byteLength" : 4128,
            "byteOffset" : 12384
        },
        {
            "buffer" : 0,
            "byteLength" : 8256,
            "byteOffset" : 16512
        },
        {
            "buffer" : 0,
            "byteLength" : 1032,
            "byteOffset" : 24768
        },
        {
            "buffer" : 0,
            "byteLength" : 2304,
            "byteOffset" : 25800
        },
        {
            "buffer" : 0,
            "byteLength" : 2304,
            "byteOffset" : 28104
        },
        {
            "buffer" : 0,
            "byteLength" : 1536,
            "byteOffset" : 30408
        },
        {
            "buffer" : 0,
            "byteLength" : 744,
            "byteOffset" : 31944
        },
        {
            "buffer" : 0,
            "byteLength" : 648,
            "byteOffset" : 32688
        },
        {
            "buffer" : 0,
            "byteLength" : 648,
            "byteOffset" : 33336
        },
        {
            "buffer" : 0,
            "byteLength" : 432,
            "byteOffset" : 33984
        },
        {
            "buffer" : 0,
            "byteLength" : 144,
            "byteOffset" : 34416
        }
    ],
    "buffers" : [
        {
            "byteLength" : 34560,
            "uri" : "data:application/octet-stream;base64,"
        }
    ]
}
